<mxfile host="app.diagrams.net" modified="2020-11-24T12:10:36.721Z" agent="5.0 (Macintosh; Intel Mac OS X 10_15_7) AppleWebKit/537.36 (KHTML, like Gecko) Chrome/87.0.4280.67 Safari/537.36" etag="3sY4ngZJlHUWBbm8VM8j" version="13.10.2" type="github">
  <diagram id="MjqplnApvSK7-drMjaEl" name="Page-1">
    <mxGraphModel dx="1749" dy="998" grid="1" gridSize="10" guides="1" tooltips="1" connect="1" arrows="1" fold="1" page="1" pageScale="1" pageWidth="827" pageHeight="1169" math="0" shadow="0">
      <root>
        <mxCell id="0" />
        <mxCell id="1" parent="0" />
        <mxCell id="2D6x35aXCJSaVkkbu39R-9" value="" style="html=1;" vertex="1" parent="1">
          <mxGeometry x="80" y="40" width="680" height="480" as="geometry" />
        </mxCell>
        <mxCell id="2D6x35aXCJSaVkkbu39R-1" value="Student" style="shape=umlActor;verticalLabelPosition=bottom;verticalAlign=top;html=1;" vertex="1" parent="1">
          <mxGeometry x="30" y="260" width="30" height="60" as="geometry" />
        </mxCell>
        <mxCell id="2D6x35aXCJSaVkkbu39R-5" value="Tutor" style="shape=umlActor;verticalLabelPosition=bottom;verticalAlign=top;html=1;" vertex="1" parent="1">
          <mxGeometry x="780" y="260" width="30" height="60" as="geometry" />
        </mxCell>
        <mxCell id="2D6x35aXCJSaVkkbu39R-8" value="Log in" style="ellipse;whiteSpace=wrap;html=1;" vertex="1" parent="1">
          <mxGeometry x="150" y="100" width="140" height="70" as="geometry" />
        </mxCell>
        <mxCell id="2D6x35aXCJSaVkkbu39R-11" value="Tutor finder website" style="text;html=1;strokeColor=none;fillColor=none;align=center;verticalAlign=middle;whiteSpace=wrap;rounded=0;" vertex="1" parent="1">
          <mxGeometry x="355" y="50" width="130" height="20" as="geometry" />
        </mxCell>
        <mxCell id="2D6x35aXCJSaVkkbu39R-12" value="Create comment" style="ellipse;whiteSpace=wrap;html=1;" vertex="1" parent="1">
          <mxGeometry x="150" y="200" width="140" height="70" as="geometry" />
        </mxCell>
        <mxCell id="2D6x35aXCJSaVkkbu39R-13" value="Create listing" style="ellipse;whiteSpace=wrap;html=1;" vertex="1" parent="1">
          <mxGeometry x="150" y="290" width="140" height="70" as="geometry" />
        </mxCell>
      </root>
    </mxGraphModel>
  </diagram>
</mxfile>
